<svg width="300" height="300" viewBox="0 0 500 500" fill="none"
      xmlns="http://www.w3.org/2000/svg">
      <g>
        <g>
          <path style="fill:#40720C;" d="M425.347,109.533c-2.797,1.679-6.153,2.238-9.511,2.518c-7.553,0.839-13.428,0-7.833-8.113
				c-3.916,0.839-8.952,2.798-13.148,1.959c-8.112-1.679-0.839-5.595,2.798-7.553c-3.637-2.238-14.267-10.351-10.071-15.946
				c3.917-4.755,14.268,4.196,17.624,6.994c0-3.357,0-15.106,5.036-7.553c2.238,3.357,1.958,9.791,3.357,13.428
				c1.119-2.238,3.077-6.435,6.155-5.875c3.076,0.559,2.797,3.357,3.636,5.875c1.119,4.196,2.798,8.393,2.518,12.868" />
        </g>
        <g>
          <path style="fill:#40720C;" d="M441.293,107.574c0-5.875-1.119-8.392-6.154-12.029c-2.238-1.958-8.113-5.036-7.554-8.393
				c0.56-5.595,6.435-0.839,9.232-0.56c0.56-5.035-6.714-7.553-8.952-11.19c-4.756-7.832,3.916-3.916,7.273-2.797
				c0.279-4.756-2.797-13.428,2.797-16.505c8.393-4.476,5.317,10.351,6.155,13.428c1.118,5.035,1.398,0.56,5.595-0.28
				c4.196-0.839,4.477,1.119,3.357,4.756c-0.839,2.238-5.875,6.434-5.315,8.952c0.839,3.357,5.315,0.28,6.993,3.637
				c3.356,6.155-9.512,18.463-13.148,21.82" />
        </g>
        <g>
          <g>
            <path style="fill:#213A00;" d="M426.791,135.034c8.315-7.957,14.311-17.807,16.826-29.085c1.305-5.853,0.8-11.994,0.174-17.895
					c-0.726-6.842-3.226-13.615-3.206-20.483c0.005-1.612-2.495-1.612-2.5,0c-0.017,5.838,2.046,11.32,2.797,17.064
					c0.764,5.839,1.278,11.678,0.804,17.562c-0.96,11.875-8.281,23.049-16.662,31.069
					C423.856,134.383,425.627,136.148,426.791,135.034L426.791,135.034z" />
          </g>
        </g>
        <g>
          <g>
            <path style="fill:#213A00;" d="M430.469,128.888c2.848-9.368,1.443-17.498-6.607-23.498
					c-8.515-6.347-19.488-8.466-27.005-16.324c-1.116-1.167-2.882,0.603-1.768,1.768c6.065,6.34,14.375,9.423,22.007,13.386
					c3.955,2.054,7.835,4.51,10.347,8.282c3.136,4.71,2.155,10.653,0.615,15.721C427.588,129.77,430.002,130.426,430.469,128.888
					L430.469,128.888z" />
          </g>
        </g>
        <g>
          <g>
            <path style="fill:#213A00;" d="M397.933,102.67c3.938,0.147,7.485-1.354,11.242-2.282c0.535-0.132,0.922-0.661,0.918-1.206
					c-0.025-3.365-0.311-6.816-1.85-9.863c-0.727-1.439-2.883-0.173-2.158,1.262c1.331,2.636,1.486,5.699,1.508,8.601
					c0.306-0.402,0.611-0.804,0.918-1.205c-3.534,0.873-6.873,2.331-10.578,2.193C396.319,100.11,396.325,102.61,397.933,102.67
					L397.933,102.67z" />
          </g>
        </g>
        <g>
          <g>
            <path style="fill:#213A00;" d="M409.733,108.78c3.62-1.089,7.313-1.912,10.91-3.077c0.637-0.207,1.075-0.863,0.873-1.538
					c-0.789-2.645-0.906-5.408-1.398-8.113c-0.288-1.585-2.697-0.911-2.41,0.665c0.491,2.707,0.608,5.466,1.398,8.113
					c0.291-0.513,0.582-1.025,0.873-1.538c-3.597,1.165-7.291,1.988-10.91,3.077C407.529,106.832,408.185,109.245,409.733,108.78
					L409.733,108.78z" />
          </g>
        </g>
        <g>
          <g>
            <path style="fill:#213A00;" d="M434.255,90.834c1.51,1.232,2.966,2.522,4.418,3.821c1.128,1.009,2.762,3.086,4.247,3.495
					c0.932,0.256,1.466-0.286,2.021-0.963c1.258-1.536,2.462-3.07,3.95-4.394c1.207-1.074-0.567-2.836-1.768-1.768
					c-0.847,0.753-1.603,1.555-2.343,2.413c-0.365,0.438-0.725,0.879-1.08,1.325c-0.929,1.154-0.346,0.661-0.321,0.681
					c-2.516-2.051-4.84-4.325-7.356-6.377C434.785,88.057,433.005,89.814,434.255,90.834L434.255,90.834z" />
          </g>
        </g>
        <g>
          <g>
            <path style="fill:#213A00;" d="M433.22,75.195c1.145,1.482,2.144,3.082,3.217,4.616c0.943,1.347,1.963,3.111,3.355,4.052
					c2.957,1.997,5.941-4.711,7.057-6.43c0.881-1.356-1.284-2.608-2.158-1.262c-0.819,1.262-1.57,2.565-2.414,3.812
					c-0.399,0.589-0.844,1.127-1.357,1.619c0.336,0.244,0.401,0.289,0.196,0.135c-0.255-0.217-0.472-0.489-0.689-0.741
					c-1.897-2.188-3.282-4.776-5.049-7.063C434.407,72.677,432.234,73.919,433.22,75.195L433.22,75.195z" />
          </g>
        </g>
        <g>
          <g>
            <path style="fill:#213A00;"
              d="M438.216,64.345c1.612,0,1.612-2.5,0-2.5S436.603,64.345,438.216,64.345L438.216,64.345z" />
          </g>
        </g>
        <g>
          <g>
            <path style="fill:#213A00;"
              d="M439.335,60.988c1.612,0,1.612-2.5,0-2.5S437.723,60.988,439.335,60.988L439.335,60.988z" />
          </g>
        </g>
        <g>
          <g>
            <path style="fill:#213A00;" d="M391.777,89.522c0.094,0,0.187,0,0.28,0c1.612,0,1.612-2.5,0-2.5c-0.094,0-0.186,0-0.28,0
					C390.165,87.022,390.165,89.522,391.777,89.522L391.777,89.522z" />
          </g>
        </g>
        <g>
          <g>
            <path style="fill:#213A00;"
              d="M392.337,86.165c1.612,0,1.612-2.5,0-2.5S390.725,86.165,392.337,86.165L392.337,86.165z" />
          </g>
        </g>
        <g>
          <g>
            <path style="fill:#213A00;" d="M414.997,98.753c1.612,0,1.612-2.5,0-2.5C413.385,96.253,413.385,98.753,414.997,98.753
					L414.997,98.753z" />
          </g>
        </g>
        <g>
          <g>
            <path style="fill:#213A00;"
              d="M418.353,109.943c1.612,0,1.612-2.5,0-2.5S416.741,109.943,418.353,109.943L418.353,109.943z" />
          </g>
        </g>
        <g>
          <g>
            <path style="fill:#213A00;"
              d="M450.245,89.802c1.612,0,1.612-2.5,0-2.5S448.633,89.802,450.245,89.802L450.245,89.802z" />
          </g>
        </g>
        <g>
          <g>
            <path style="fill:#213A00;"
              d="M451.924,93.998c1.612,0,1.612-2.5,0-2.5S450.311,93.998,451.924,93.998L451.924,93.998z" />
          </g>
        </g>
        <g>
          <g>
            <path style="fill:#213A00;"
              d="M438.495,88.962c1.612,0,1.612-2.5,0-2.5S436.883,88.962,438.495,88.962L438.495,88.962z" />
          </g>
        </g>
        <g>
          <path style="fill:#E87915;" d="M435.698,132.752c-19.303-36.647-61.545,18.463-76.092,33.569
				c-4.475,4.756-16.505,10.071-17.903,16.505c-1.679,9.232,10.63,10.35,16.785,10.071c16.784-0.839,27.135-2.518,41.962-11.47
				c9.791-5.595,21.82-12.029,29.373-20.142C436.537,154.013,442.691,142.081,435.698,132.752" />
        </g>
        <g>
          <path style="fill:#D16913;" d="M435.698,132.752c-1.429-2.712-2.984-4.91-4.643-6.67c-16.934,32.29-55.668,49.668-89.196,60.482
				c1.841,5.807,11.431,6.569,16.63,6.333c16.784-0.839,27.135-2.518,41.962-11.47c9.791-5.595,21.82-12.029,29.373-20.142
				C436.537,154.013,442.691,142.081,435.698,132.752z" />
        </g>
        <g>
          <g>
            <path style="fill:#A34E08;" d="M349.296,178.142c0.897,1.217,1.652,2.519,2.713,3.61c1.126,1.157,2.892-0.612,1.768-1.768
					c-0.911-0.937-1.551-2.058-2.322-3.104c-0.403-0.547-1.075-0.82-1.71-0.449C349.203,176.749,348.891,177.592,349.296,178.142
					L349.296,178.142z" />
          </g>
        </g>
        <g>
          <g>
            <path style="fill:#A34E08;" d="M352.653,175.345c1.42,2.233,3.078,4.3,4.196,6.714c0.677,1.462,2.831,0.191,2.158-1.262
					c-1.118-2.414-2.775-4.481-4.196-6.714C353.949,172.727,351.785,173.98,352.653,175.345L352.653,175.345z" />
          </g>
        </g>
        <g>
          <g>
            <path style="fill:#A34E08;" d="M361.885,170.03c3.813,5.52,7.117,11.354,10.631,17.064c0.843,1.37,3.006,0.115,2.158-1.262
					c-3.513-5.71-6.816-11.545-10.631-17.064C363.134,167.452,360.966,168.7,361.885,170.03L361.885,170.03z" />
          </g>
        </g>
        <g>
          <g>
            <path style="fill:#A34E08;" d="M372.516,178.422c1.362,2.413,3,4.686,4.07,7.255c0.61,1.465,3.03,0.823,2.41-0.665
					c-1.159-2.784-2.846-5.237-4.322-7.852C373.882,175.757,371.722,177.017,372.516,178.422L372.516,178.422z" />
          </g>
        </g>
        <g>
          <g>
            <path style="fill:#A34E08;" d="M370.557,159.399c1.887,2.675,3.998,5.293,5.19,8.374c0.574,1.487,2.992,0.841,2.41-0.665
					c-1.281-3.314-3.41-6.091-5.441-8.971C371.794,156.831,369.625,158.078,370.557,159.399L370.557,159.399z" />
          </g>
        </g>
        <g>
          <g>
            <path style="fill:#A34E08;" d="M375.033,154.364c1.191,2.017,2.823,3.708,4.196,5.595c0.939,1.29,3.108,0.044,2.158-1.262
					c-1.372-1.886-3.006-3.582-4.196-5.595C376.372,151.716,374.211,152.973,375.033,154.364L375.033,154.364z" />
          </g>
        </g>
        <g>
          <g>
            <path style="fill:#A34E08;" d="M387.622,161.357c3.374,5.274,7.164,10.27,10.35,15.665c0.818,1.387,2.98,0.13,2.158-1.262
					c-3.185-5.395-6.976-10.392-10.35-15.665C388.915,158.743,386.75,159.995,387.622,161.357L387.622,161.357z" />
          </g>
        </g>
        <g>
          <g>
            <path style="fill:#A34E08;" d="M398.252,164.714c1.74,2.669,3.108,5.563,5.035,8.113c0.958,1.269,3.131,0.026,2.158-1.262
					c-1.926-2.55-3.294-5.443-5.035-8.113C399.533,162.108,397.368,163.359,398.252,164.714L398.252,164.714z" />
          </g>
        </g>
        <g>
          <g>
            <path style="fill:#A34E08;" d="M397.972,152.965c3.55,6.261,6.789,12.736,11.19,18.463c0.968,1.259,3.141,0.017,2.158-1.262
					c-4.4-5.727-7.64-12.202-11.19-18.463C399.335,150.301,397.175,151.561,397.972,152.965L397.972,152.965z" />
          </g>
        </g>
        <g>
          <g>
            <path style="fill:#A34E08;" d="M395.37,136.993c1.427,1.653,3.049,3.262,3.875,5.323c0.592,1.477,3.011,0.833,2.41-0.665
					c-1.003-2.504-2.778-4.411-4.518-6.426C396.082,134.002,394.322,135.779,395.37,136.993L395.37,136.993z" />
          </g>
        </g>
        <g>
          <g>
            <path style="fill:#A34E08;" d="M400.685,132.237c4.307,5.376,8.572,10.718,11.833,16.812c0.761,1.422,2.919,0.159,2.158-1.262
					c-3.36-6.28-7.787-11.781-12.224-17.318C401.445,129.211,399.688,130.992,400.685,132.237L400.685,132.237z" />
          </g>
        </g>
        <g>
          <g>
            <path style="fill:#A34E08;" d="M408.322,129.746c1.775,2.563,4.286,4.386,6.351,6.687c1.078,1.203,2.841-0.571,1.768-1.768
					c-1.911-2.13-4.318-3.813-5.96-6.181C409.569,127.169,407.401,128.417,408.322,129.746L408.322,129.746z" />
          </g>
        </g>
        <g>
          <g>
            <path style="fill:#A34E08;" d="M419.792,133.103c3.656,6.105,7.792,11.905,10.631,18.463c0.639,1.476,2.792,0.202,2.158-1.262
					c-2.838-6.559-6.974-12.358-10.631-18.463C421.123,130.46,418.961,131.716,419.792,133.103L419.792,133.103z" />
          </g>
        </g>
        <g>
          <g>
            <path style="fill:#A34E08;" d="M428.464,136.74c1.066,1.825,2.383,3.511,2.952,5.576c0.428,1.552,2.839,0.892,2.41-0.665
					c-0.631-2.289-2.023-4.152-3.204-6.173C429.81,134.087,427.648,135.345,428.464,136.74L428.464,136.74z" />
          </g>
        </g>
        <g>
          <g>
            <path style="fill:#A34E08;" d="M421.065,154.905c0.663,1.923,1.694,3.573,3.118,5.027c1.129,1.154,2.896-0.615,1.768-1.768
					c-1.114-1.139-1.954-2.414-2.476-3.925C422.954,152.726,420.538,153.376,421.065,154.905L421.065,154.905z" />
          </g>
        </g>
        <g>
          <g>
            <path style="fill:#A34E08;" d="M386.782,145.692c0.574,0.861,1.15,1.745,1.874,2.491c1.124,1.159,2.891-0.611,1.768-1.768
					c-0.578-0.596-1.024-1.297-1.483-1.985c-0.377-0.566-1.096-0.808-1.71-0.449C386.669,144.311,386.403,145.124,386.782,145.692
					L386.782,145.692z" />
          </g>
        </g>
      </g>
    </svg>