<svg class="banner-shape-3" width="400" height="400" viewBox="0 0 500 500" fill="none"
  xmlns="http://www.w3.org/2000/svg">
  <g>
    <g>
      <path style="fill:#2D5103;" d="M101.798,127.684c0.448-2.688-0.448-4.479-1.343-6.719c-0.896-4.031-9.406-11.646-9.406-14.333
    c0.448-1.791,5.823-5.374,8.063-4.479c2.239,0.896,3.583,6.271,4.031,8.063c1.344,4.479,3.584,10.749,2.24,14.781" />
    </g>
    <g>
      <path style="fill:#B71D25;" d="M104.485,128.131c-12.541-6.719-38.52-14.333-47.03,0.896
    c-6.718,11.197-6.271,29.562-1.343,41.207c5.375,13.438,21.499,22.395,35.384,25.979c20.603,5.823,45.686-2.688,56.436-21.499
    c8.958-16.572,13.885-38.071-1.792-52.404C132.255,110.215,116.131,116.934,104.485,128.131" />
    </g>
    <g>
      <path style="fill:#9B121F;" d="M146.141,122.309c-0.588-0.512-1.181-0.978-1.776-1.424c1.68,21.98-4.492,44.494-27.748,52.774
    c-22.036,7.845-47.096-0.949-63.852-17.06c0.536,4.955,1.676,9.685,3.348,13.635c5.375,13.438,21.499,22.395,35.384,25.979
    c20.603,5.823,45.686-2.688,56.436-21.499C156.89,158.141,161.817,136.642,146.141,122.309z" />
    </g>
    <g>
      <path style="fill:#40720C;"
        d="M103.59,124.996c-9.854-4.479-19.708,0-27.77,6.271c6.718,1.344,14.781-0.448,21.499-2.239
    c-1.792,5.375-5.375,11.197-5.375,17.468c6.271-1.344,8.062-9.406,11.197-13.885c2.688,4.479,6.271,10.749,12.094,12.541
    c0.448-4.927-3.584-10.302-5.823-14.781c5.374-1.343,10.749,0.896,16.124,1.344c2.239-10.302-15.677-14.781-21.052-7.614" />
    </g>
    <g>
      <g>
        <path style="fill:#600210;" d="M70.009,132.174c-5.302,4.226-6.677,12.061-4.353,18.237c0.563,1.494,2.98,0.847,2.411-0.665
      c-2.045-5.433-0.969-12.075,3.71-15.804C73.038,132.937,71.256,131.18,70.009,132.174L70.009,132.174z" />
      </g>
    </g>
    <g>
      <g>
        <path style="fill:#213A00;" d="M87.051,129.061c5.475-2.46,12.672,0.92,17.124-4.078c1.069-1.199-0.693-2.974-1.768-1.768
      c-3.798,4.263-11.626,1.443-16.618,3.687C84.321,127.563,85.594,129.716,87.051,129.061L87.051,129.061z" />
      </g>
    </g>
    <g>
      <g>
        <path style="fill:#213A00;" d="M97.801,139.064c2.739-4.408,3.792-9.574,6.419-14.034c0.82-1.392-1.341-2.649-2.158-1.262
      c-2.629,4.461-3.684,9.63-6.419,14.034C94.79,139.176,96.953,140.43,97.801,139.064L97.801,139.064z" />
      </g>
    </g>
    <g>
      <g>
        <path style="fill:#213A00;" d="M111.089,137.503c-2.514-4.578-4.169-9.551-6.569-14.183c-0.742-1.432-2.899-0.167-2.158,1.262
      c2.4,4.633,4.055,9.605,6.569,14.183C109.706,140.178,111.866,138.917,111.089,137.503L111.089,137.503z" />
      </g>
    </g>
    <g>
      <g>
        <path style="fill:#213A00;" d="M121.689,126.179c-2.784-0.692-5.533-1.507-8.33-2.145c-3.015-0.688-6.128-0.571-9.138-1.289
      c-1.567-0.373-2.233,2.037-0.665,2.411c3.014,0.718,6.105,0.686,9.138,1.288c2.809,0.559,5.552,1.455,8.33,2.146
      C122.589,128.979,123.252,126.568,121.689,126.179L121.689,126.179z" />
      </g>
    </g>
    <g>
      <g>
        <path style="fill:#213A00;" d="M95.86,110.525c1.611-0.645,3.219-1.299,4.777-2.067c1.446-0.712,0.179-2.869-1.262-2.158
      c-1.365,0.672-2.768,1.249-4.181,1.814c-0.632,0.253-1.069,0.825-0.873,1.538C94.487,110.253,95.226,110.778,95.86,110.525
      L95.86,110.525z" />
      </g>
    </g>
    <g>
      <g>
        <path style="fill:#213A00;" d="M99.891,115.027c0.628-0.377,1.262-0.788,1.941-1.068c0.629-0.26,1.07-0.819,0.873-1.538
      c-0.164-0.596-0.907-1.134-1.538-0.873c-0.89,0.368-1.713,0.826-2.538,1.321C97.249,113.697,98.505,115.859,99.891,115.027
      L99.891,115.027z" />
      </g>
    </g>
    <g>
      <g>
        <path style="fill:#213A00;" d="M102.28,119.655c0.393-0.243,0.861-0.35,1.344-0.471c1.563-0.394,0.899-2.804-0.665-2.411
      c-0.67,0.169-1.348,0.356-1.941,0.724C99.651,118.344,100.905,120.507,102.28,119.655L102.28,119.655z" />
      </g>
    </g>
  </g>
</svg>